<?xml version="1.0" encoding="utf-8"?>
<!-- Generator: Adobe Illustrator 27.9.0, SVG Export Plug-In . SVG Version: 6.00 Build 0)  -->
<svg version="1.1" id="Warstwa_1" xmlns="http://www.w3.org/2000/svg" xmlns:xlink="http://www.w3.org/1999/xlink" x="0px" y="0px"
     viewBox="0 0 283.46 141.73" style="enable-background:new 0 0 283.46 141.73;" xml:space="preserve">
<g>
	<path d="M126.56,75.93c-10.42,0-17.52,7.11-17.52,16.72c0,8.07,6.09,13.2,15.39,13.2c4.38,0,8.71-1.07,12.34-3.74l-4.22-6.36
		c-1.92,1.55-4.43,2.35-7,2.35c-4.01,0-6.2-1.5-6.57-4.7h21.26c0.32-1.44,0.59-3.05,0.59-4.75
		C140.83,81.06,135.38,75.93,126.56,75.93z M119.56,88.06c0.96-2.89,3.1-4.92,6.52-4.92c3.26,0,5.45,1.82,5.4,4.92H119.56z"/>
    <path d="M169.3,79.88c-1.82-2.78-4.97-3.95-8.87-3.95c-8.65,0-15.71,7.11-15.71,16.72c0,8.44,5.98,13.2,12.23,13.2
		c3.37,0,6.14-1.12,8.39-3.21l-0.59,2.72h9.62l5.77-28.96H170L169.3,79.88z M160.49,97.67c-3.47,0-5.5-2.14-5.5-5.5
		c0-4.86,2.88-8.12,6.89-8.12c3.47,0,5.5,2.19,5.5,5.56C167.38,94.41,164.55,97.67,160.49,97.67z"/>
    <path d="M205.69,75.93c-3.37,0-6.14,1.12-8.39,3.21l0.59-2.72h-9.62l-7.85,39.32h10.15l2.78-13.84c1.82,2.78,4.97,3.95,8.87,3.95
		c8.65,0,15.71-7.11,15.71-16.78C217.92,80.68,211.94,75.93,205.69,75.93z M200.77,97.67c-3.47,0-5.5-2.14-5.5-5.5
		c0-4.86,2.88-8.12,6.89-8.12c3.47,0,5.5,2.19,5.5,5.56C207.66,94.41,204.78,97.67,200.77,97.67z"/>
    <path d="M239.93,75.93c-10.36,0-17.79,7.16-17.79,16.72c0,7.96,5.93,13.2,15.17,13.2c10.36,0,17.79-7.16,17.79-16.78
		C255.1,81.11,249.17,75.93,239.93,75.93z M237.9,97.67c-3.47,0-5.45-2.14-5.45-5.5c0-4.86,2.83-8.12,6.89-8.12
		c3.47,0,5.45,2.19,5.45,5.56C244.79,94.41,241.96,97.67,237.9,97.67z"/>
    <path d="M273.75,85.06h6.57l1.5-7.59h-6.57l1.5-7.53h-10.15l-1.5,7.53h-4.22l-1.55,7.59h4.27l-1.92,9.56
		c-0.21,0.96-0.27,1.87-0.27,2.72c0,5.4,3.85,8.49,9.78,8.49c2.67,0,5.4-0.48,7.53-1.71l-1.28-7c-1.02,0.53-1.98,0.85-3.05,0.85
		c-1.76,0-2.67-0.85-2.67-2.46c0-0.27,0.05-0.59,0.11-0.96L273.75,85.06z"/>
    <path d="M122.32,42.54c-4.57,0.55-7.78,3.4-9.85,7.63c-0.94,1.92-1.55,4.02-2.35,6.16c-0.45-0.47-0.94-1.01-1.46-1.51
		c-1.88-1.76-3.91-2.83-6.56-2.61c-2.24,0.18-4.44-0.54-5.74-2.88c-0.99-1.79-0.58-2.51,1.31-2.55c1.17-0.02,2.18-0.4,2.45-1.74
		c0.27-1.35-0.29-2.52-1.52-2.87c-1.56-0.45-3.2-0.57-4.81-0.78c-0.4-0.05-0.82,0.1-1.31,0.17c0.49-2.8-0.84-4.76-2.63-6.39
		c-4.94-4.49-10.7-6.12-17.01-5.61c-0.19,0.02-0.37,0.03-0.74,0.06c1.02-1.94,1.47-3.88,0.97-6.03c-0.68-3-3.44-5.09-6.27-4.66
		c-3,0.45-4.93,3.16-4.56,6.38c0.33,2.8,1.06,4.38,2.98,6.3C57.1,35.29,50.8,40.54,50.6,51.04c-1.76,0.35-3.55,0.5-5.19,1.11
		c-0.78,0.29-1.55,1.33-1.81,2.21c-0.71,2.38,0.59,3.8,2.91,3.44c0.37-0.06,0.79-0.26,1.1-0.13c0.54,0.23,1.2,0.55,1.42,1.04
		c0.18,0.39-0.08,1.22-0.41,1.57c-0.47,0.49-1.14,0.87-1.79,1.04c-5.82,1.45-8.16,5.14-7.3,11.49c0.18,1.33,0.23,2.7,0.15,4.03
		c-0.12,2.02-0.64,3.88-2.75,4.53c-1.94,0.6-4.83-0.26-5.81-2.15c-1.17-2.27-2-4.75-2.83-7.19c-1.14-3.35-1.79-6.93-3.26-10.11
		c-3.62-7.87-12.45-10.84-19.19-6.59c-1.47,0.92-2.67,2.41-3.78,3.83c-0.87,1.11-0.33,2.09,1.03,1.98c1.77-0.13,2.69,0.83,3.35,2.42
		c0.43,1.02,0.99,1.98,1.47,2.93c0.38-0.14,0.5-0.14,0.54-0.2c1.19-1.93,2.78-3.08,5.07-2.56c2.53,0.57,4,2.45,4.75,4.94
		c0.87,2.91,1.05,5.9,0.65,8.91c-0.5,3.79-1.04,7.57-0.07,11.44c1.96,7.87,7.22,12.67,15.27,13.64c2.09,0.25,4.2,0.2,6.51,0.29
		c0.13,1.07,0.24,2.35,0.46,3.61c1.67,9.42,7.76,13.88,15.64,15.5c5.71,1.17,11.45,1.01,17.1,0.03c6.93-1.2,13.86-2.52,20.71-4.12
		c6.35-1.49,12.24-4.22,17.23-8.71c0.34-0.31,0.67-0.62,0.99-0.94c-5.55-2.97-8.8-8.29-8.8-15.16c0-9.02,4.81-16.3,12.32-19.82
		c0.88-0.41,1.3-1.43,1-2.35c-0.4-1.26-0.8-2.52-1.2-3.77c-0.18-0.57-0.23-1.16-0.23-1.72c-0.02-3.41,0.01-6.74,1.3-9.88
		c2.19-5.3,7.2-6.96,12-3.98c3.76,2.33,5.64,6.47,4.21,10.24c-0.66,1.73-2.02,3.3-3.39,4.53c-1.17,1.05-2.36,2.07-3.52,3.13
		c-0.58,0.53-0.2,1.5,0.59,1.5l0.02,0c2.15,0,4.18,0.25,6.04,0.71c1.37-1.02,2.72-2.07,4.04-3.17c5.24-4.4,5.08-10.64,2.32-16.18
		C136.22,45.85,129.11,41.73,122.32,42.54z M61.29,105.9H49.98l8-43.99h11.31L61.29,105.9z M111.55,71.81H98.11l-6.84,34.08H78.84
		l6.84-34.08h-13.5l2.01-9.86h39.36L111.55,71.81z"/>
</g>
</svg>